<?xml version="1.0" encoding="UTF-8" standalone="no"?>
<svg width="500" height="500" viewBox="0 0 500 500" fill="none" xmlns="http://www.w3.org/2000/svg">
  <!-- Gradient Background -->
  <defs>
    <linearGradient id="gradient" x1="0%" y1="0%" x2="100%" y2="100%">
      <stop offset="0%" stop-color="#4e73df" />
      <stop offset="100%" stop-color="#1cc88a" />
    </linearGradient>
  </defs>
  
  <!-- Blob Shape -->
  <path d="M375.5,146.6c33.2,43.3,52.8,99.8,42.8,153.2c-10,53.4-49.5,103.7-98.8,129.8c-49.3,26.1-108.3,28-156.8,5.7
  c-48.5-22.3-86.5-68.9-101.3-124.1C46.6,255.9,55,192.1,88.2,148.7c33.2-43.3,91.2-66.2,150.7-66.2
  C298.3,82.5,342.3,103.3,375.5,146.6z" fill="url(#gradient)"/>
  
  <!-- Decorative Circles -->
  <circle cx="150" cy="150" r="20" fill="white" opacity="0.1"/>
  <circle cx="350" cy="350" r="30" fill="white" opacity="0.1"/>
  <circle cx="250" cy="200" r="15" fill="white" opacity="0.1"/>
  <circle cx="200" cy="300" r="25" fill="white" opacity="0.1"/>
  <circle cx="300" cy="150" r="10" fill="white" opacity="0.1"/>
</svg>