<?xml version="1.0" encoding="UTF-8" standalone="no"?>
<svg width="600" height="400" viewBox="0 0 600 400" fill="none" xmlns="http://www.w3.org/2000/svg">
  <!-- Background -->
  <rect width="600" height="400" fill="#f8f9fc"/>
  
  <!-- Code Window Frame -->
  <rect x="100" y="80" width="400" height="240" rx="10" fill="#ffffff" stroke="#e3e6f0" stroke-width="2"/>
  
  <!-- Window Header -->
  <rect x="100" y="80" width="400" height="30" rx="10" fill="#4e73df"/>
  <circle cx="120" cy="95" r="5" fill="#e74a3b"/>
  <circle cx="140" cy="95" r="5" fill="#f6c23e"/>
  <circle cx="160" cy="95" r="5" fill="#1cc88a"/>
  
  <!-- Code Lines -->
  <rect x="120" y="130" width="200" height="10" rx="2" fill="#e3e6f0"/>
  <rect x="120" y="150" width="300" height="10" rx="2" fill="#e3e6f0"/>
  <rect x="120" y="170" width="250" height="10" rx="2" fill="#e3e6f0"/>
  <rect x="120" y="190" width="280" height="10" rx="2" fill="#e3e6f0"/>
  <rect x="120" y="210" width="180" height="10" rx="2" fill="#e3e6f0"/>
  <rect x="120" y="230" width="320" height="10" rx="2" fill="#e3e6f0"/>
  <rect x="120" y="250" width="220" height="10" rx="2" fill="#e3e6f0"/>
  <rect x="120" y="270" width="260" height="10" rx="2" fill="#e3e6f0"/>
  
  <!-- Python Logo -->
  <g transform="translate(450, 250) scale(0.5)">
    <path d="M50,0 C22.4,0 25,12.5 25,12.5 L25,25 L50,25 L50,30 L15,30 C15,30 0,27.5 0,50 C0,72.5 15,70 15,70 L25,70 L25,57.5 C25,57.5 24.2,42.5 40,42.5 L65,42.5 C65,42.5 80,42.8 80,27.5 L80,12.5 C80,12.5 82.5,0 50,0 Z" fill="#4584b6"/>
    <path d="M50,100 C77.6,100 75,87.5 75,87.5 L75,75 L50,75 L50,70 L85,70 C85,70 100,72.5 100,50 C100,27.5 85,30 85,30 L75,30 L75,42.5 C75,42.5 75.8,57.5 60,57.5 L35,57.5 C35,57.5 20,57.2 20,72.5 L20,87.5 C20,87.5 17.5,100 50,100 Z" fill="#ffde57"/>
    <circle cx="35" cy="15" r="5" fill="#ffffff"/>
    <circle cx="65" cy="85" r="5" fill="#ffffff"/>
  </g>
  
  <!-- Text -->
  <text x="300" y="350" font-family="Arial, sans-serif" font-size="16" fill="#6c757d" text-anchor="middle">Project Screenshot</text>
</svg>